<?xml version="1.0" encoding="UTF-8"?>
<svg version="1.1" xmlns="http://www.w3.org/2000/svg" width="187" height="218">
<path d="M0 0 C61.71 0 123.42 0 187 0 C187 71.94 187 143.88 187 218 C125.29 218 63.58 218 0 218 C0 146.06 0 74.12 0 0 Z " fill="#FCFEFE" transform="translate(0,0)"/>
<path d="M0 0 C0.495 1.485 0.495 1.485 1 3 C3.50447516 4.21869929 3.50447516 4.21869929 6 5 C6 5.66 6 6.32 6 7 C7.32 7.33 8.64 7.66 10 8 C10 8.66 10 9.32 10 10 C11.32 10.33 12.64 10.66 14 11 C14 11.66 14 12.32 14 13 C15.03125 13.268125 16.0625 13.53625 17.125 13.8125 C23.52800953 15.69725684 27.01567422 17.7018733 30.6328125 23.28125 C32.91873255 26.15497807 35.73462037 27.39932371 39 29 C39.60253976 42.18892578 37.14613241 49.22045394 28.765625 59.30078125 C26.77692915 61.77356287 26.77692915 61.77356287 27.08203125 64.2265625 C28.45441902 66.87789887 30.64447987 68.21899697 33 70 C33.99 71.485 33.99 71.485 35 73 C39.499082 72.30783354 43.24012263 69.78929036 46.40234375 66.57421875 C48.30080642 64.70360639 50.32946511 63.23641018 52.5 61.6875 C57.8620899 57.82993267 63.18606395 53.9236409 68.5 50 C74.607369 45.49404448 80.72320013 41.00134309 86.87109375 36.55078125 C88.32224828 35.49370171 89.75154203 34.40610512 91.16015625 33.29296875 C93 32 93 32 95 32 C95 31.34 95 30.68 95 30 C97.39877253 27.88878011 100.11177138 26.17337729 102.75 24.375 C103.47960937 23.859375 104.20921875 23.34375 104.9609375 22.8125 C106.02441406 22.08160156 106.02441406 22.08160156 107.109375 21.3359375 C107.75874023 20.88782715 108.40810547 20.4397168 109.07714844 19.97802734 C111 19 111 19 115 19 C116.17301869 25.31996141 116.22134701 31.46389357 116.25 37.875 C116.2809375 39.59396484 116.2809375 39.59396484 116.3125 41.34765625 C116.35335223 50.2228026 115.3005973 56.71975167 109.5625 63.8125 C108.98628906 64.54082031 108.41007813 65.26914063 107.81640625 66.01953125 C106.00279714 67.99695022 104.24725765 69.537206 102 71 C101.34 71 100.68 71 100 71 C100 71.66 100 72.32 100 73 C97.525 73.99 97.525 73.99 95 75 C95 75.66 95 76.32 95 77 C93.21121538 78.19456507 91.36450679 79.30245604 89.5 80.375 C80.35656213 85.77507347 71.97160674 92.26458564 63.66015625 98.85546875 C62 100 62 100 60 100 C60 100.66 60 101.32 60 102 C55.61538462 105 55.61538462 105 53 105 C53 105.66 53 106.32 53 107 C44.28502629 112.5912761 37.62074716 115.61234184 27 114 C23.6875 112.8125 23.6875 112.8125 21 111 C20.35546875 110.62488281 19.7109375 110.24976563 19.046875 109.86328125 C14.75618053 107.34448468 11.48348513 104.58301328 8 101 C7.01 100.67 6.02 100.34 5 100 C4.67 99.34 4.34 98.68 4 98 C3.01 97.67 2.02 97.34 1 97 C1 96.34 1 95.68 1 95 C0.44441406 94.74347656 -0.11117187 94.48695313 -0.68359375 94.22265625 C-4.24731653 92.34163563 -7.39998907 89.91669963 -10.66015625 87.55859375 C-12.99411708 85.85599119 -12.99411708 85.85599119 -16 85 C-16 84.34 -16 83.68 -16 83 C-16.61875 82.896875 -17.2375 82.79375 -17.875 82.6875 C-20 82 -20 82 -22 79 C-23.65071396 77.97388051 -25.31970006 76.97691857 -27 76 C-27.7425 75.38125 -28.485 74.7625 -29.25 74.125 C-31.70010579 72.23173644 -33.9471941 70.96115213 -36.6875 69.5625 C-40.8225761 67.3548478 -40.8225761 67.3548478 -42.375 64.25 C-42.58125 63.5075 -42.7875 62.765 -43 62 C-43.99 61.67 -44.98 61.34 -46 61 C-49.76904911 52.87250315 -50.93794522 41.45175843 -47.875 32.9375 C-45.66483868 29.47491393 -43.50034849 28.10020909 -40 26 C-38.31288577 24.3540349 -36.6454378 22.68762851 -35 21 C-30.35135135 17 -30.35135135 17 -28 17 C-27.67 16.01 -27.34 15.02 -27 14 C-24.78515625 12.17578125 -24.78515625 12.17578125 -22.0625 10.3125 C-21.16660156 9.68988281 -20.27070312 9.06726563 -19.34765625 8.42578125 C-17 7 -17 7 -15 7 C-15 6.34 -15 5.68 -15 5 C-5.77448747 -0.74031891 -5.77448747 -0.74031891 0 0 Z " fill="#0169FE" transform="translate(63,93)"/>
<path d="M0 0 C1.23169922 0.71349609 1.23169922 0.71349609 2.48828125 1.44140625 C8.47827049 5.09301214 13.86034612 9.22457128 19.23046875 13.7265625 C24.78627959 18.28718578 30.62235391 22.51665589 36.6875 26.375 C37.450625 26.91125 38.21375 27.4475 39 28 C39 28.66 39 29.32 39 30 C39.58031982 30.114646 40.16063965 30.22929199 40.75854492 30.34741211 C44.77166923 31.5158122 47.93596806 34.16210463 51.3125 36.5625 C52.0770752 37.10535645 52.84165039 37.64821289 53.62939453 38.20751953 C60.83538669 43.43205735 66.552842 48.62974566 70 57 C70.41138791 59.82556688 70.42037432 62.58648045 70.375 65.4375 C70.38660156 66.16259766 70.39820313 66.88769531 70.41015625 67.63476562 C70.37622864 73.92833745 68.89502909 78.70637299 64.80859375 83.65234375 C64.02613281 84.40644531 63.24367187 85.16054687 62.4375 85.9375 C61.65246094 86.70964844 60.86742187 87.48179688 60.05859375 88.27734375 C58 90 58 90 56 90 C56 90.66 56 91.32 56 92 C54.59472656 93.22094727 54.59472656 93.22094727 52.640625 94.56640625 C51.93679687 95.05173828 51.23296875 95.53707031 50.5078125 96.03710938 C49.76273438 96.54048828 49.01765625 97.04386719 48.25 97.5625 C47.52039063 98.06974609 46.79078125 98.57699219 46.0390625 99.09960938 C42.69626291 101.38182982 40.01843775 103.20424211 36 104 C36 104.66 36 105.32 36 106 C29.61245187 110.05363631 29.61245187 110.05363631 27.08203125 109.83203125 C24.40625206 108.76272362 22.28081475 107.300311 19.9375 105.625 C19.08027344 105.01914063 18.22304687 104.41328125 17.33984375 103.7890625 C15.37037155 102.28318893 13.60591041 100.88497025 12 99 C12 98.34 12 97.68 12 97 C11.32582031 96.773125 10.65164062 96.54625 9.95703125 96.3125 C6.18061666 94.6363107 3.02906415 92.40895459 -0.3125 90 C-0.95767578 89.54882812 -1.60285156 89.09765625 -2.26757812 88.6328125 C-3.88501255 87.47579063 -5.44793244 86.24333423 -7 85 C-7 84.34 -7 83.68 -7 83 C-7.65613281 82.79246094 -8.31226562 82.58492188 -8.98828125 82.37109375 C-13.15202041 80.47553935 -16.5587013 77.82432779 -20.1875 75.0625 C-20.91130859 74.52431641 -21.63511719 73.98613281 -22.38085938 73.43164062 C-25.52704688 71.05809823 -27.78713161 69.31930259 -30 66 C-29.7337542 60.35375284 -26.22678039 57.78667859 -22.3515625 54.08984375 C-18.62098546 50.77446382 -15.08813028 47.78278927 -10 47 C-10 47.66 -10 48.32 -10 49 C-9.10667969 49.25265625 -8.21335937 49.5053125 -7.29296875 49.765625 C-3.89205057 51.04046503 -2.02064272 52.36862492 0.6875 54.75 C6.8051322 59.95848408 13.26179808 64.6377746 19.80151367 69.30175781 C20.60306885 69.88151367 21.40462402 70.46126953 22.23046875 71.05859375 C22.95645264 71.57736084 23.68243652 72.09612793 24.43041992 72.63061523 C24.94838135 73.08251221 25.46634277 73.53440918 26 74 C26 74.66 26 75.32 26 76 C30.3845105 74.66028846 32.6161966 72.94244409 35 69 C35.06664011 66.51384129 35.06664011 66.51384129 34 64 C31.56941021 61.6983659 31.56941021 61.6983659 28.5625 59.75 C27.57378906 59.06421875 26.58507812 58.3784375 25.56640625 57.671875 C23.14433327 56.02487566 23.14433327 56.02487566 21 55 C21 54.34 21 53.68 21 53 C20.46375 52.7525 19.9275 52.505 19.375 52.25 C16.4176018 50.69347463 13.70275949 48.96564327 11 47 C11 46.34 11 45.68 11 45 C10.34 44.95875 9.68 44.9175 9 44.875 C4.67334212 43.61305812 1.28163211 41.06991391 -2 38 C-2 37.34 -2 36.68 -2 36 C-2.78375 35.690625 -3.5675 35.38125 -4.375 35.0625 C-7 34 -7 34 -9 33 C-14.6514822 32.01099061 -18.06266042 34.54508008 -22.6328125 37.4921875 C-24.71053165 38.81561917 -26.77721296 39.9449444 -29 41 C-29 41.66 -29 42.32 -29 43 C-30.72147778 44.37659768 -32.50377655 45.67772763 -34.3125 46.9375 C-38.20872721 49.62236415 -38.20872721 49.62236415 -41.73046875 52.75390625 C-43 54 -43 54 -45 54 C-45 54.66 -45 55.32 -45 56 C-46.36210914 56.9534764 -47.73295111 57.89642641 -49.140625 58.78125 C-51.9708559 60.63635933 -54.60238529 62.74295282 -57.265625 64.828125 C-59 66 -59 66 -61 66 C-61 66.66 -61 67.32 -61 68 C-62.3984375 69.41015625 -62.3984375 69.41015625 -64.375 71.0625 C-67.61404504 73.80542371 -70.7601512 76.61679344 -73.875 79.5 C-83.74136341 88.36145603 -83.74136341 88.36145603 -89 91 C-91.2890625 90.6796875 -91.2890625 90.6796875 -93 90 C-95.23980898 83.68373869 -95.36681923 77.72573679 -95.375 71.0625 C-95.39949219 70.01642578 -95.42398438 68.97035156 -95.44921875 67.89257812 C-95.48617674 58.09255038 -92.53859171 52.04829179 -85.99609375 44.88671875 C-81.87678324 40.99312388 -77.07237156 38.19737023 -72.1875 35.375 C-69.94280636 34.07714906 -69.94280636 34.07714906 -68.1875 32.1875 C-63.8360586 27.8360586 -58.72292091 24.44499108 -53.5625 21.125 C-47.92315824 17.41720559 -43.10050276 12.87010446 -38.16015625 8.296875 C-34.08695458 4.63930615 -30.01725646 2.17511118 -25 0 C-24.36191406 -0.30035156 -23.72382812 -0.60070312 -23.06640625 -0.91015625 C-15.33104536 -4.25643913 -7.37799876 -4.27467557 0 0 Z " fill="#02CC71" transform="translate(110,14)"/>
<path d="M0 0 C0.495 1.485 0.495 1.485 1 3 C3.50447516 4.21869929 3.50447516 4.21869929 6 5 C6 5.66 6 6.32 6 7 C7.32 7.33 8.64 7.66 10 8 C10 8.66 10 9.32 10 10 C11.32 10.33 12.64 10.66 14 11 C14 11.66 14 12.32 14 13 C15.03125 13.268125 16.0625 13.53625 17.125 13.8125 C23.52800953 15.69725684 27.01567422 17.7018733 30.6328125 23.28125 C32.91873255 26.15497807 35.73462037 27.39932371 39 29 C39.60253976 42.18892578 37.14613241 49.22045394 28.765625 59.30078125 C26.77692915 61.77356287 26.77692915 61.77356287 27.08203125 64.2265625 C28.45441902 66.87789887 30.64447987 68.21899697 33 70 C33.99 71.485 33.99 71.485 35 73 C39.0013028 72.38441495 41.77824353 70.36262141 45 68 C45.33 67.34 45.66 66.68 46 66 C46.66 66.33 47.32 66.66 48 67 C46.3563186 68.68933922 44.6857124 70.35259924 43 72 C42.38125 72.61875 41.7625 73.2375 41.125 73.875 C37.89863478 75.5830757 35.47658332 74.75852727 32 74 C30.515 73.505 30.515 73.505 29 73 C29 72.34 29 71.68 29 71 C28.0925 70.9175 27.185 70.835 26.25 70.75 C23 70 23 70 21.125 68.0859375 C18.72744672 65.73245689 16.89772568 64.99165129 13.75 63.875 C7.55157339 61.44721969 2.29217841 58.14069379 -3.25537109 54.52856445 C-8.05016303 51.45699168 -12.52255775 49.60545721 -18 48 C-18.66 47.01 -19.32 46.02 -20 45 C-20.66 45 -21.32 45 -22 45 C-22 44.34 -22 43.68 -22 43 C-22.66 43 -23.32 43 -24 43 C-24 42.34 -24 41.68 -24 41 C-24.66 41 -25.32 41 -26 41 C-25.67 41.78375 -25.34 42.5675 -25 43.375 C-24 46 -24 46 -24 48 C-26.31 48 -28.62 48 -31 48 C-30.505 48.45375 -30.01 48.9075 -29.5 49.375 C-28 51 -28 51 -28 53 C-28.66 53 -29.32 53 -30 53 C-30 52.34 -30 51.68 -30 51 C-30.66 51 -31.32 51 -32 51 C-33.5625 50 -33.5625 50 -35 48 C-35.71522139 44.70053528 -36 41.37847292 -36 38 C-36.66 38 -37.32 38 -38 38 C-39.01866229 36.34467377 -40.01810813 34.67739862 -41 33 C-41.66 32.67 -42.32 32.34 -43 32 C-43.33 32.66 -43.66 33.32 -44 34 C-44.66 33.67 -45.32 33.34 -46 33 C-46.33 33.99 -46.66 34.98 -47 36 C-48 34 -48 34 -47.4375 32.125 C-45.4703089 29.21697838 -42.935831 27.89965535 -40 26 C-38.31288577 24.3540349 -36.6454378 22.68762851 -35 21 C-30.35135135 17 -30.35135135 17 -28 17 C-27.67 16.01 -27.34 15.02 -27 14 C-24.78515625 12.17578125 -24.78515625 12.17578125 -22.0625 10.3125 C-21.16660156 9.68988281 -20.27070312 9.06726563 -19.34765625 8.42578125 C-17 7 -17 7 -15 7 C-15 6.34 -15 5.68 -15 5 C-5.77448747 -0.74031891 -5.77448747 -0.74031891 0 0 Z " fill="#0176FE" transform="translate(63,93)"/>
<path d="M0 0 C1.17301869 6.31996141 1.22134701 12.46389357 1.25 18.875 C1.270625 20.02097656 1.29125 21.16695312 1.3125 22.34765625 C1.35335223 31.2228026 0.3005973 37.71975167 -5.4375 44.8125 C-6.01371094 45.54082031 -6.58992188 46.26914063 -7.18359375 47.01953125 C-8.99720286 48.99695022 -10.75274235 50.537206 -13 52 C-13.66 52 -14.32 52 -15 52 C-15 52.66 -15 53.32 -15 54 C-16.65 54.66 -18.3 55.32 -20 56 C-20 56.66 -20 57.32 -20 58 C-21.78878462 59.19456507 -23.63549321 60.30245604 -25.5 61.375 C-33.8083718 66.27514061 -41.36808363 72.12175889 -49 78 C-50.32 77.34 -51.64 76.68 -53 76 C-52.67 75.01 -52.34 74.02 -52 73 C-52.99 72.34 -53.98 71.68 -55 71 C-55 70.34 -55 69.68 -55 69 C-55.66 68.67 -56.32 68.34 -57 68 C-57.2165625 66.6696875 -57.2165625 66.6696875 -57.4375 65.3125 C-58.05009493 61.70499651 -59.289338 59.21604455 -61 56 C-63 51.36842105 -63 51.36842105 -63 49 C-63.66 49 -64.32 49 -65 49 C-65.33 49.66 -65.66 50.32 -66 51 C-66.33 49.35 -66.66 47.7 -67 46 C-66.42636719 45.58492187 -65.85273437 45.16984375 -65.26171875 44.7421875 C-58.15014853 39.58387101 -51.07608339 34.37583595 -44.00634766 29.16040039 C-38.72915984 25.26909284 -33.44007258 21.39562237 -28.12890625 17.55078125 C-26.67775172 16.49370171 -25.24845797 15.40610512 -23.83984375 14.29296875 C-22 13 -22 13 -20 13 C-20 12.34 -20 11.68 -20 11 C-17.60122747 8.88878011 -14.88822862 7.17337729 -12.25 5.375 C-11.52039063 4.859375 -10.79078125 4.34375 -10.0390625 3.8125 C-9.33007812 3.32523437 -8.62109375 2.83796875 -7.890625 2.3359375 C-7.24125977 1.88782715 -6.59189453 1.4397168 -5.92285156 0.97802734 C-4 0 -4 0 0 0 Z " fill="#0446BA" transform="translate(178,112)"/>
<path d="M0 0 C3.93619738 0.56231391 6.79192446 1.61685817 10 4 C10 4.99 10 5.98 10 7 C10.7425 7.268125 11.485 7.53625 12.25 7.8125 C15 9 15 9 16.9375 10.625 C19.69245372 12.46163581 21.75211748 12.07060614 25 12 C25.66 12.66 26.32 13.32 27 14 C27.763125 14.226875 28.52625 14.45375 29.3125 14.6875 C32.17168164 16.08384452 32.71216093 16.80116658 34.375 19.375 C36.976545 23.35627813 39.76424235 24.92364821 44 27 C44.58818152 39.87464001 42.44322137 47.21511605 34 57 C32.68 56.67 31.36 56.34 30 56 C29.896875 55.236875 29.79375 54.47375 29.6875 53.6875 C28.91596219 50.67148855 28.3128478 49.98244097 26 48 C20.40793201 42.80736544 20.40793201 42.80736544 20 39 C20 38.67 20 38.34 20 38 C19.67 37.34 19.34 36.68 19 36 C19.99 36 20.98 36 22 36 C21.175 35.071875 20.35 34.14375 19.5 33.1875 C17 30.375 17 30.375 17 27 C15.0624994 24.81222534 15.0624994 24.81222534 13 23 C12.67 23.66 12.34 24.32 12 25 C8.42424104 25 6.94704065 23.91159393 4 22 C3.67 22.66 3.34 23.32 3 24 C1.68 23.01 0.36 22.02 -1 21 C-1.66 21.33 -2.32 21.66 -3 22 C-3.99 21.34 -4.98 20.68 -6 20 C-5.67 19.34 -5.34 18.68 -5 18 C-7.22189824 15.77810176 -9.08482708 15.07401108 -12 14 C-12 13.01 -12 12.02 -12 11 C-10.35 11 -8.7 11 -7 11 C-7.66 9.68 -8.32 8.36 -9 7 C-8.01 7 -7.02 7 -6 7 C-6 6.01 -6 5.02 -6 4 C-4.02 3.01 -2.04 2.02 0 1 C0 0.67 0 0.34 0 0 Z " fill="#0169FE" transform="translate(58,95)"/>
<path d="M0 0 C2.75 2.125 2.75 2.125 4.0625 4.5 C6.68024197 8.57204306 10.67145425 10.63683058 14.75 13.125 C14.255 14.61 14.255 14.61 13.75 16.125 C14.41 16.125 15.07 16.125 15.75 16.125 C15.255 17.61 15.255 17.61 14.75 19.125 C11.64448334 19.125 10.39738916 18.5856285 7.75 17.125 C7.42 17.785 7.09 18.445 6.75 19.125 C5.76 18.465 4.77 17.805 3.75 17.125 C3.42 17.785 3.09 18.445 2.75 19.125 C1.1 19.125 -0.55 19.125 -2.25 19.125 C-2.25 18.465 -2.25 17.805 -2.25 17.125 C-2.91 17.125 -3.57 17.125 -4.25 17.125 C-4.91 19.435 -5.57 21.745 -6.25 24.125 C-6.91 24.125 -7.57 24.125 -8.25 24.125 C-6.93 25.445 -5.61 26.765 -4.25 28.125 C-4.745 29.115 -4.745 29.115 -5.25 30.125 C-8.30495224 30.125 -11.26961272 29.89120642 -14.3125 29.625 C-18.27620962 29.259186 -18.27620962 29.259186 -22.25 29.125 C-22.25 29.785 -22.25 30.445 -22.25 31.125 C-23.24 31.125 -24.23 31.125 -25.25 31.125 C-25.25 31.785 -25.25 32.445 -25.25 33.125 C-27.23 33.62 -27.23 33.62 -29.25 34.125 C-29.745 32.64 -29.745 32.64 -30.25 31.125 C-32.25016466 29.91617904 -32.25016466 29.91617904 -34.25 29.125 C-33.26 28.63 -33.26 28.63 -32.25 28.125 C-32.745 26.64 -32.745 26.64 -33.25 25.125 C-32.59 25.125 -31.93 25.125 -31.25 25.125 C-30.92 25.455 -30.59 25.785 -30.25 26.125 C-30.25 25.135 -30.25 24.145 -30.25 23.125 C-30.91 23.125 -31.57 23.125 -32.25 23.125 C-32.25 22.465 -32.25 21.805 -32.25 21.125 C-32.91 20.795 -33.57 20.465 -34.25 20.125 C-33.92 19.135 -33.59 18.145 -33.25 17.125 C-34.24 16.795 -35.23 16.465 -36.25 16.125 C-36.58 15.135 -36.91 14.145 -37.25 13.125 C-36.26 13.125 -35.27 13.125 -34.25 13.125 C-34.25 12.465 -34.25 11.805 -34.25 11.125 C-35.57 10.795 -36.89 10.465 -38.25 10.125 C-38.25 9.465 -38.25 8.805 -38.25 8.125 C-36.93 7.795 -35.61 7.465 -34.25 7.125 C-34.25 6.465 -34.25 5.805 -34.25 5.125 C-33.074375 4.196875 -33.074375 4.196875 -31.875 3.25 C-29.16662125 1.40449495 -29.16662125 1.40449495 -28.375 -1 C-27.25 -2.875 -27.25 -2.875 -24.25 -4.125 C-15.00095742 -6.2638411 -8.16809586 -4.712363 0 0 Z " fill="#01CC68" transform="translate(113.25,15.875)"/>
<path d="M0 0 C2 1 2 1 3.08203125 3.546875 C5.10382778 11.15227131 6.15843931 20.23737615 2.12890625 27.26171875 C-1.20502878 31.01171135 -4.37427037 33.97359092 -9 36 C-9 36.66 -9 37.32 -9 38 C-10.40527344 39.22094727 -10.40527344 39.22094727 -12.359375 40.56640625 C-13.06320313 41.05173828 -13.76703125 41.53707031 -14.4921875 42.03710938 C-15.60980469 42.79217773 -15.60980469 42.79217773 -16.75 43.5625 C-17.84441406 44.32336914 -17.84441406 44.32336914 -18.9609375 45.09960938 C-22.30373709 47.38182982 -24.98156225 49.20424211 -29 50 C-29 50.66 -29 51.32 -29 52 C-35.3030303 56 -35.3030303 56 -38.125 56 C-41.53616384 54.18071262 -44.46151854 52.49117944 -45.8125 48.75 C-45.874375 48.1725 -45.93625 47.595 -46 47 C-46.66 47 -47.32 47 -48 47 C-48.33 45.68 -48.66 44.36 -49 43 C-48.34 43 -47.68 43 -47 43 C-45.7018576 41.8509288 -45.7018576 41.8509288 -45 39 C-44.34 39 -43.68 39 -43 39 C-43.495 37.515 -43.495 37.515 -44 36 C-41.92446352 35.4465236 -40.15634036 35 -38 35 C-38.33 34.34 -38.66 33.68 -39 33 C-38.01 32.505 -38.01 32.505 -37 32 C-37.804375 31.21625 -38.60875 30.4325 -39.4375 29.625 C-42 27 -42 27 -43 25 C-41.37548581 24.66430703 -39.75037083 24.3315204 -38.125 24 C-37.22007812 23.814375 -36.31515625 23.62875 -35.3828125 23.4375 C-33 23 -33 23 -31 23 C-31 22.34 -31 21.68 -31 21 C-30.01 21 -29.02 21 -28 21 C-27.34 20.67 -26.68 20.34 -26 20 C-26 20.99 -26 21.98 -26 23 C-24.68 23.33 -23.36 23.66 -22 24 C-21.67 23.34 -21.34 22.68 -21 22 C-19.35 23.32 -17.7 24.64 -16 26 C-16 25.34 -16 24.68 -16 24 C-15.38125 23.7525 -14.7625 23.505 -14.125 23.25 C-11.60474173 21.76749514 -10.98768341 20.71612936 -10 18 C-10 17.01 -10 16.02 -10 15 C-9.34 15 -8.68 15 -8 15 C-8 14.01 -8 13.02 -8 12 C-7.34 12 -6.68 12 -6 12 C-4.5393715 14.64738916 -4 15.89448334 -4 19 C-4.66 19 -5.32 19 -6 19 C-5.34 20.32 -4.68 21.64 -4 23 C-3.01 22.67 -2.02 22.34 -1 22 C-1.66 20.35 -2.32 18.7 -3 17 C-2.505 16.505 -2.505 16.505 -2 16 C-1.92686433 13.46950598 -1.90752473 10.96695163 -1.9375 8.4375 C-1.94201172 7.72658203 -1.94652344 7.01566406 -1.95117188 6.28320312 C-1.96299136 4.52209987 -1.98092737 2.76103964 -2 1 C-1.34 0.67 -0.68 0.34 0 0 Z " fill="#02CC68" transform="translate(175,68)"/>
<path d="M0 0 C2.3125 0.0625 2.3125 0.0625 5 1 C6.5625 4.0625 6.5625 4.0625 7.24609375 5.97265625 C8.03890948 8.10463223 9.03902367 10.00320482 10.125 12 C11.62506075 14.89861363 12.0644899 16.49979673 12.5 19.875 C12.7475 21.421875 12.7475 21.421875 13 23 C14.93597032 24.51294288 14.93597032 24.51294288 17 25 C16.505 26.485 16.505 26.485 16 28 C16.66 28.33 17.32 28.66 18 29 C18 29.66 18 30.32 18 31 C16.35 31.66 14.7 32.32 13 33 C13 33.66 13 34.32 13 35 C8.61538462 38 8.61538462 38 6 38 C6 38.66 6 39.32 6 40 C-2.0422715 45.01203566 -8.28673865 48.22632358 -18 47 C-18.495 45.515 -18.495 45.515 -19 44 C-20.98 43.67 -22.96 43.34 -25 43 C-25 42.34 -25 41.68 -25 41 C-25.66 41 -26.32 41 -27 41 C-27 40.34 -27 39.68 -27 39 C-24.69 39.33 -22.38 39.66 -20 40 C-20.66 39.34 -21.32 38.68 -22 38 C-21.34 37.01 -20.68 36.02 -20 35 C-19.34 35 -18.68 35 -18 35 C-17.87625 34.360625 -17.7525 33.72125 -17.625 33.0625 C-17.41875 32.381875 -17.2125 31.70125 -17 31 C-16.34 30.67 -15.68 30.34 -15 30 C-15.66 29.01 -16.32 28.02 -17 27 C-16.34 27 -15.68 27 -15 27 C-15.33 25.68 -15.66 24.36 -16 23 C-15.34 23 -14.68 23 -14 23 C-14.33 22.01 -14.66 21.02 -15 20 C-14.34 19.34 -13.68 18.68 -13 18 C-13.33 17.01 -13.66 16.02 -14 15 C-13.01 15 -12.02 15 -11 15 C-11 14.34 -11 13.68 -11 13 C-11.66 12.67 -12.32 12.34 -13 12 C-12.34 12 -11.68 12 -11 12 C-11 11.34 -11 10.68 -11 10 C-10.34 10 -9.68 10 -9 10 C-8.79375 9.4225 -8.5875 8.845 -8.375 8.25 C-6.50830178 5.19540291 -3.9858093 3.90583572 -1 2 C-0.67 1.34 -0.34 0.68 0 0 Z " fill="#0155DB" transform="translate(110,160)"/>
<path d="M0 0 C1.17301869 6.31996141 1.22134701 12.46389357 1.25 18.875 C1.270625 20.02097656 1.29125 21.16695312 1.3125 22.34765625 C1.35358552 31.27348579 0.27975664 37.75170343 -5.5 44.875 C-6.0878125 45.61492187 -6.675625 46.35484375 -7.28125 47.1171875 C-9 49 -9 49 -12 51 C-13.32 51 -14.64 51 -16 51 C-16 51.66 -16 52.32 -16 53 C-17.875 52.875 -17.875 52.875 -20 52 C-21.25 48.9375 -21.25 48.9375 -22 46 C-21.34 45.34 -20.68 44.68 -20 44 C-20.495 42.515 -20.495 42.515 -21 41 C-21.66 41 -22.32 41 -23 41 C-23 40.34 -23 39.68 -23 39 C-23.66 39 -24.32 39 -25 39 C-24.67 37.68 -24.34 36.36 -24 35 C-25.32 34.34 -26.64 33.68 -28 33 C-28 32.34 -28 31.68 -28 31 C-27.34 31 -26.68 31 -26 31 C-26 30.34 -26 29.68 -26 29 C-26.66 29 -27.32 29 -28 29 C-28.49537762 24.9544161 -28.85201741 21.45158521 -26.734375 17.84375 C-25.23503486 16.06783256 -23.81036413 14.45860944 -22 13 C-21.34 13 -20.68 13 -20 13 C-20 12.34 -20 11.68 -20 11 C-17.60122747 8.88878011 -14.88822862 7.17337729 -12.25 5.375 C-11.52039063 4.859375 -10.79078125 4.34375 -10.0390625 3.8125 C-9.33007812 3.32523437 -8.62109375 2.83796875 -7.890625 2.3359375 C-7.24125977 1.88782715 -6.59189453 1.4397168 -5.92285156 0.97802734 C-4 0 -4 0 0 0 Z " fill="#043589" transform="translate(178,112)"/>
<path d="M0 0 C-1.04874998 2.62187494 -1.64931313 3.79371361 -4.125 5.25 C-5.053125 5.62125 -5.053125 5.62125 -6 6 C-6 6.66 -6 7.32 -6 8 C-7.32 8.33 -8.64 8.66 -10 9 C-9.34 9.33 -8.68 9.66 -8 10 C-8 10.66 -8 11.32 -8 12 C-7.34 12 -6.68 12 -6 12 C-6 12.66 -6 13.32 -6 14 C-6.66 14.33 -7.32 14.66 -8 15 C-7.34 15.7425 -6.68 16.485 -6 17.25 C-4 20 -4 20 -4 24 C-3.01 23.67 -2.02 23.34 -1 23 C-1 24.98 -1 26.96 -1 29 C-1.66 28.67 -2.32 28.34 -3 28 C-3.495 28.495 -3.495 28.495 -4 29 C-4.22609337 31.12364481 -4.22609337 31.12364481 -2.5 32.625 C-1.7575 33.305625 -1.7575 33.305625 -1 34 C-0.34 33.67 0.32 33.34 1 33 C1.66 33.33 2.32 33.66 3 34 C3 33.34 3 32.68 3 32 C3.99 32 4.98 32 6 32 C6 31.34 6 30.68 6 30 C8.79720603 28.60139698 10.84251705 29.13362895 13.9375 29.4375 C16.98546339 29.73007486 19.93737528 30 23 30 C25.125 30.375 25.125 30.375 27 31 C27.495 31.99 27.495 31.99 28 33 C28.66 33 29.32 33 30 33 C32.625 35.125 32.625 35.125 35 38 C35.3125 41.3125 35.3125 41.3125 35 44 C30.50985376 42.50328459 26.52151236 40.16631659 23 37 C23 36.34 23 35.68 23 35 C22.21625 34.690625 21.4325 34.38125 20.625 34.0625 C18 33 18 33 16 32 C10.3485178 31.01099061 6.93733958 33.54508008 2.3671875 36.4921875 C0.28946835 37.81561917 -1.77721296 38.9449444 -4 40 C-4 40.66 -4 41.32 -4 42 C-4.66 42 -5.32 42 -6 42 C-5.125 36.125 -5.125 36.125 -4 35 C-5.32 33.35 -6.64 31.7 -8 30 C-9.98 30.66 -11.96 31.32 -14 32 C-14.99 31.01 -15.98 30.02 -17 29 C-17.99 29.33 -18.98 29.66 -20 30 C-19.34 31.65 -18.68 33.3 -18 35 C-18.99 35 -19.98 35 -21 35 C-20.67 35.66 -20.34 36.32 -20 37 C-21.32 36.67 -22.64 36.34 -24 36 C-24 35.01 -24 34.02 -24 33 C-24.66 33 -25.32 33 -26 33 C-25.67 33.99 -25.34 34.98 -25 36 C-25.495 36.99 -25.495 36.99 -26 38 C-26.66 38 -27.32 38 -28 38 C-28 38.99 -28 39.98 -28 41 C-28.66 41 -29.32 41 -30 41 C-30 40.34 -30 39.68 -30 39 C-30.66 39 -31.32 39 -32 39 C-31.34 40.65 -30.68 42.3 -30 44 C-30.99 43.34 -31.98 42.68 -33 42 C-34.485 42.495 -34.485 42.495 -36 43 C-36 42.34 -36 41.68 -36 41 C-36.66 41 -37.32 41 -38 41 C-38 41.99 -38 42.98 -38 44 C-39.8125 44.625 -39.8125 44.625 -42 45 C-42.99 44.34 -43.98 43.68 -45 43 C-44.67 43.66 -44.34 44.32 -44 45 C-44.94875 44.566875 -45.8975 44.13375 -46.875 43.6875 C-50.60762018 42.60261243 -52.68628824 43.43138298 -56.125 45.125 C-59.6984169 47.11325788 -62.95007227 49.25506505 -66 52 C-62.30559406 43.26776778 -55.06990962 38.92928112 -47.1875 34.375 C-44.94280636 33.07714906 -44.94280636 33.07714906 -43.1875 31.1875 C-38.8360586 26.8360586 -33.72292091 23.44499108 -28.5625 20.125 C-23.61371808 16.87123977 -19.35136036 13.00005787 -15 9 C-5.11011236 0 -5.11011236 0 0 0 Z " fill="#11CC78" transform="translate(85,15)"/>
<path d="M0 0 C0.66 0.33 1.32 0.66 2 1 C1.175 1.680625 0.35 2.36125 -0.5 3.0625 C-3.58261187 6.68456895 -3.34875892 8.37894428 -3 13 C-3.33 13.66 -3.66 14.32 -4 15 C-3.34 15 -2.68 15 -2 15 C-2 15.66 -2 16.32 -2 17 C-2.66 17 -3.32 17 -4 17 C-2.9790625 17.86625 -2.9790625 17.86625 -1.9375 18.75 C-1.298125 19.4925 -0.65875 20.235 0 21 C-0.25 23.25 -0.25 23.25 -1 25 C-0.34 25 0.32 25 1 25 C1 25.66 1 26.32 1 27 C1.66 27 2.32 27 3 27 C3.66 28.32 4.32 29.64 5 31 C4.34 31.66 3.68 32.32 3 33 C3.78130071 35.49552484 3.78130071 35.49552484 5 38 C5.99 38.33 6.98 38.66 8 39 C8 38.34 8 37.68 8 37 C8.99 37.33 9.98 37.66 11 38 C10.34 38 9.68 38 9 38 C9 38.66 9 39.32 9 40 C7.35 40.66 5.7 41.32 4 42 C4 42.66 4 43.32 4 44 C-0.38461538 47 -0.38461538 47 -3 47 C-3 46.01 -3 45.02 -3 44 C-4.485 44.495 -4.485 44.495 -6 45 C-6 44.01 -6 43.02 -6 42 C-7.485 41.505 -7.485 41.505 -9 41 C-9.2165625 40.1028125 -9.2165625 40.1028125 -9.4375 39.1875 C-10.18702663 36.27267423 -11.87176477 35.05958248 -14 33 C-14 31 -14 31 -12.5 29.375 C-12.005 28.92125 -11.51 28.4675 -11 28 C-13.64 28 -16.28 28 -19 28 C-18.01 27.01 -17.02 26.02 -16 25 C-16.9075 24.54625 -17.815 24.0925 -18.75 23.625 C-22.375 21.8125 -22.375 21.8125 -26 20 C-23.33382621 17.95768908 -20.66696815 15.91627346 -18 13.875 C-17.25621094 13.30523437 -16.51242188 12.73546875 -15.74609375 12.1484375 C-11.36179606 8.79349666 -6.96095209 5.46326769 -2.53125 2.16845703 C-1.03961848 1.08401353 -1.03961848 1.08401353 0 0 Z " fill="#0438A4" transform="translate(154,126)"/>
<path d="M0 0 C9.56485028 1.10527159 17.37094365 7.25198565 24.69921875 13.16015625 C27.37644906 15.30103142 30.11324917 17.34440732 32.875 19.375 C33.77992187 20.04273438 34.68484375 20.71046875 35.6171875 21.3984375 C37.9834734 23.14268898 37.9834734 23.14268898 41 24 C44.41499213 27.07349291 46.65662794 30.0943799 49 34 C52.75306638 38.35062905 52.75306638 38.35062905 58 40 C59.94927203 39.12105884 59.94927203 39.12105884 61.6875 37.6875 C62.28949219 37.23761719 62.89148438 36.78773438 63.51171875 36.32421875 C65.12993827 35.04923767 65.12993827 35.04923767 66 33 C66.66 33.33 67.32 33.66 68 34 C66.3563186 35.68933922 64.6857124 37.35259924 63 39 C62.38125 39.61875 61.7625 40.2375 61.125 40.875 C57.89863478 42.5830757 55.47658332 41.75852727 52 41 C51.01 40.67 50.02 40.34 49 40 C49 39.34 49 38.68 49 38 C48.0925 37.9175 47.185 37.835 46.25 37.75 C42.41607574 36.86524825 41.69486347 35.77185957 39 33 C37.69462039 32.21575282 36.36399781 31.47298329 35.01953125 30.7578125 C29.73804981 27.88287441 24.61633376 24.78267906 19.5 21.625 C18.61441406 21.08617187 17.72882812 20.54734375 16.81640625 19.9921875 C12.407347 17.27294391 8.08982905 14.45503184 3.90625 11.3984375 C3.17728516 10.86653809 2.44832031 10.33463867 1.69726562 9.78662109 C-0.43056227 7.54677004 -0.76158485 6.0518343 -1 3 C-0.67 2.01 -0.34 1.02 0 0 Z " fill="#1288FE" transform="translate(43,126)"/>
<path d="M0 0 C3.40312738 1.05875074 6.01353231 2.00902154 9 4 C9.6875 6.125 9.6875 6.125 10 8 C8.68 7.67 7.36 7.34 6 7 C6 7.66 6 8.32 6 9 C7.32 9.66 8.64 10.32 10 11 C10 11.66 10 12.32 10 13 C10.99 13.33 11.98 13.66 13 14 C14.1875 16.0625 14.1875 16.0625 15 18 C13.02 18 11.04 18 9 18 C9.66 18.99 10.32 19.98 11 21 C10.360625 21.103125 9.72125 21.20625 9.0625 21.3125 C8.381875 21.539375 7.70125 21.76625 7 22 C6.67 22.99 6.34 23.98 6 25 C7.89179203 25.6814823 7.89179203 25.6814823 10 26 C10.66 25.34 11.32 24.68 12 24 C12.66 25.32 13.32 26.64 14 28 C9.82262526 29.59138085 6.46839215 30.21278058 2 30 C2 28.35 2 26.7 2 25 C1.67 25.99 1.34 26.98 1 28 C0.01 27.67 -0.98 27.34 -2 27 C-1.67 26.34 -1.34 25.68 -1 25 C-2.65 25 -4.3 25 -6 25 C-6.33 24.01 -6.66 23.02 -7 22 C-9.01508358 21.26676204 -9.01508358 21.26676204 -11 21 C-11 20.34 -11 19.68 -11 19 C-12.32 18.34 -13.64 17.68 -15 17 C-15 12.12545895 -12.78280929 8.95676692 -9.75 5.25 C-6.44017943 2.54196499 -4.135137 1.89189229 0 1 C0 0.67 0 0.34 0 0 Z " fill="#03CC6A" transform="translate(97,63)"/>
<path d="M0 0 C3.00092657 2.25069493 3.21031306 4.94640878 4 8.5 C3.34 8.5 2.68 8.5 2 8.5 C2 9.16 2 9.82 2 10.5 C2.66 10.83 3.32 11.16 4 11.5 C3.34 11.5 2.68 11.5 2 11.5 C2.33 12.263125 2.66 13.02625 3 13.8125 C4 16.5 4 16.5 4 19.5 C3.34 19.5 2.68 19.5 2 19.5 C2.33 20.16 2.66 20.82 3 21.5 C3.99 21.5 4.98 21.5 6 21.5 C6 23.81 6 26.12 6 28.5 C6.66 28.83 7.32 29.16 8 29.5 C5.37801226 31.65377564 3.35595828 32.90072174 0 33.5 C0 34.16 0 34.82 0 35.5 C-12.66970387 35.8690205 -12.66970387 35.8690205 -18 33.5 C-18 32.84 -18 32.18 -18 31.5 C-18.66 31.5 -19.32 31.5 -20 31.5 C-20 30.84 -20 30.18 -20 29.5 C-17.69 29.83 -15.38 30.16 -13 30.5 C-13.66 29.84 -14.32 29.18 -15 28.5 C-14.34 27.51 -13.68 26.52 -13 25.5 C-12.34 25.5 -11.68 25.5 -11 25.5 C-10.87625 24.860625 -10.7525 24.22125 -10.625 23.5625 C-10.41875 22.881875 -10.2125 22.20125 -10 21.5 C-9.34 21.17 -8.68 20.84 -8 20.5 C-8.66 19.51 -9.32 18.52 -10 17.5 C-9.34 17.5 -8.68 17.5 -8 17.5 C-8.33 16.18 -8.66 14.86 -9 13.5 C-8.34 13.5 -7.68 13.5 -7 13.5 C-7.33 12.51 -7.66 11.52 -8 10.5 C-7.34 9.84 -6.68 9.18 -6 8.5 C-6.33 7.51 -6.66 6.52 -7 5.5 C-6.01 5.5 -5.02 5.5 -4 5.5 C-4 4.84 -4 4.18 -4 3.5 C-4.66 3.17 -5.32 2.84 -6 2.5 C-5.34 2.5 -4.68 2.5 -4 2.5 C-4 1.84 -4 1.18 -4 0.5 C-2 -0.5 -2 -0.5 0 0 Z " fill="#0055EE" transform="translate(103,169.5)"/>
<path d="M0 0 C3.04796339 0.29257486 5.99987528 0.5625 9.0625 0.5625 C11.1875 0.9375 11.1875 0.9375 13.0625 1.5625 C13.3925 2.2225 13.7225 2.8825 14.0625 3.5625 C14.7225 3.5625 15.3825 3.5625 16.0625 3.5625 C18.6875 5.6875 18.6875 5.6875 21.0625 8.5625 C21.375 11.875 21.375 11.875 21.0625 14.5625 C16.57235376 13.06578459 12.58401236 10.72881659 9.0625 7.5625 C9.0625 6.9025 9.0625 6.2425 9.0625 5.5625 C8.27875 5.253125 7.495 4.94375 6.6875 4.625 C4.0625 3.5625 4.0625 3.5625 2.0625 2.5625 C-1.89312822 2.30452425 -4.53409693 2.46809811 -7.9375 4.5625 C-7.9375 3.2425 -7.9375 1.9225 -7.9375 0.5625 C-5.14029397 -0.83610302 -3.09498295 -0.30387105 0 0 Z " fill="#23CF82" transform="translate(98.9375,44.4375)"/>
<path d="M0 0 C5.3970709 3.48321597 10.55518112 7.14595303 15.59375 11.12890625 C20.92038319 15.27088238 26.38561788 19.25707859 32 23 C32 23.66 32 24.32 32 25 C32.5775 25.0825 33.155 25.165 33.75 25.25 C36.6159304 26.20531013 37.9990764 27.78469173 40 30 C38.35 29.67 36.7 29.34 35 29 C35 28.34 35 27.68 35 27 C33.68 27 32.36 27 31 27 C31 26.01 31 25.02 31 24 C30.443125 23.896875 29.88625 23.79375 29.3125 23.6875 C26.5230899 22.85821592 24.3860936 21.65700944 22 20 C22 19.34 22 18.68 22 18 C21.34 17.814375 20.68 17.62875 20 17.4375 C16.41011714 15.7173478 13.98720014 13.41045127 11.0625 10.74609375 C8.23845798 8.35528545 5.25015323 6.75508275 2 5 C1.34 4.34 0.68 3.68 0 3 C0 2.01 0 1.02 0 0 Z " fill="#2DD087" transform="translate(117,19)"/>
<path d="M0 0 C2.53540812 1.01416325 5.06183846 2.02714859 7.5625 3.125 C10.19583084 4.22524317 10.19583084 4.22524317 14 4 C14.33 4.66 14.66 5.32 15 6 C15.66 6.33 16.32 6.66 17 7 C16.34 7 15.68 7 15 7 C15.33 7.99 15.66 8.98 16 10 C17.65 10 19.3 10 21 10 C21.79811267 13.39365554 22.32157614 16.51452962 22 20 C20.04739517 22.61710386 17.76929481 24.30113087 15 26 C14.34 25.67 13.68 25.34 13 25 C14.33463542 23.60026042 15.66927083 22.20052083 17.00390625 20.80078125 C18.19805106 18.9869231 18.19805106 18.9869231 17.9921875 16.55859375 C16.62632086 13.03637861 14.65906696 11.86001441 11.5625 9.75 C10.57378906 9.06421875 9.58507812 8.3784375 8.56640625 7.671875 C6.14433327 6.02487566 6.14433327 6.02487566 4 5 C4 4.34 4 3.68 4 3 C2.68 2.34 1.36 1.68 0 1 C0 0.67 0 0.34 0 0 Z " fill="#2BCF86" transform="translate(127,64)"/>
<path d="M0 0 C2.78388975 1.70625501 3.85384206 2.47626739 4.75 5.6875 C4.87375 6.8321875 4.87375 6.8321875 5 8 C6.65 7.34 8.3 6.68 10 6 C10.33 6.99 10.66 7.98 11 9 C10.67 9.66 10.34 10.32 10 11 C10.66 11 11.32 11 12 11 C12.66 12.65 13.32 14.3 14 16 C10.32432629 14.58730938 6.8106889 12.99624979 3.3125 11.1875 C2.35988281 10.70667969 1.40726562 10.22585937 0.42578125 9.73046875 C-2.3808312 7.72832814 -3.05270354 6.26291004 -4 3 C-2.68 2.67 -1.36 2.34 0 2 C0 1.34 0 0.68 0 0 Z " fill="#14CC79" transform="translate(123,53)"/>
<path d="M0 0 C0 0.66 0 1.32 0 2 C0.87914063 2.24234375 1.75828125 2.4846875 2.6640625 2.734375 C6.27675587 4.10499871 8.45954471 5.73638166 11.375 8.25 C15.80753961 12.00340905 20.31112441 15.57403073 25 19 C24.01 19.33 23.02 19.66 22 20 C19.95703125 18.85546875 19.95703125 18.85546875 17.8125 17.1875 C17.09707031 16.64480469 16.38164063 16.10210937 15.64453125 15.54296875 C15.10183594 15.03378906 14.55914062 14.52460937 14 14 C14 13.34 14 12.68 14 12 C11.69 11.67 9.38 11.34 7 11 C6.67 11.66 6.34 12.32 6 13 C5.01 12.34 4.02 11.68 3 11 C3 10.34 3 9.68 3 9 C3.99 9 4.98 9 6 9 C6 8.01 6 7.02 6 6 C0.84595658 3.77122447 -2.51546521 4.02497159 -8 5 C-3.375 0 -3.375 0 0 0 Z " fill="#14CE7E" transform="translate(100,61)"/>
<path d="M0 0 C0.99 0.66 1.98 1.32 3 2 C3 2.66 3 3.32 3 4 C3.99 4 4.98 4 6 4 C6.66 5.65 7.32 7.3 8 9 C6 9 6 9 4.5625 7.6875 C3 6 3 6 1.6875 4.3125 C-0.01445659 2.77105268 -0.01445659 2.77105268 -2.75 2.5625 C-6.98048154 3.1319879 -9.37493443 4.76919042 -13 7 C-13.66 7 -14.32 7 -15 7 C-15 7.66 -15 8.32 -15 9 C-16.86328125 10.47265625 -16.86328125 10.47265625 -19.3125 12.0625 C-20.11300781 12.58972656 -20.91351563 13.11695312 -21.73828125 13.66015625 C-24 15 -24 15 -27 16 C-27 15.34 -27 14.68 -27 14 C-26.34 14 -25.68 14 -25 14 C-25 13.34 -25 12.68 -25 12 C-19.58823529 8 -19.58823529 8 -17 8 C-17 7.34 -17 6.68 -17 6 C-14.8125 4.5625 -14.8125 4.5625 -12 3 C-11.21625 2.443125 -10.4325 1.88625 -9.625 1.3125 C-6.21745785 -0.39127108 -3.76375541 -0.34849587 0 0 Z " fill="#CDEAFB" transform="translate(63,91)"/>
<path d="M0 0 C0.33 0.66 0.66 1.32 1 2 C0.0625 4.125 0.0625 4.125 -1 6 C2.32086771 8.77000825 2.32086771 8.77000825 6 11 C6.45375 11.495 6.9075 11.99 7.375 12.5 C9.22951249 14.21185769 10.54524501 14.57676638 13 15 C13 15.66 13 16.32 13 17 C13.66 17.33 14.32 17.66 15 18 C14.67 17.01 14.34 16.02 14 15 C14.66 15 15.32 15 16 15 C16.33 17.31 16.66 19.62 17 22 C17.639375 22.103125 18.27875 22.20625 18.9375 22.3125 C19.618125 22.539375 20.29875 22.76625 21 23 C21.33 23.99 21.66 24.98 22 26 C21.34 26 20.68 26 20 26 C20 25.34 20 24.68 20 24 C19.34386719 23.79246094 18.68773438 23.58492187 18.01171875 23.37109375 C13.84797959 21.47553935 10.4412987 18.82432779 6.8125 16.0625 C6.08869141 15.52431641 5.36488281 14.98613281 4.61914062 14.43164062 C1.47295312 12.05809823 -0.78713161 10.31930259 -3 7 C-2.6758631 3.67759676 -2.39223697 2.39223697 0 0 Z " fill="#24CE83" transform="translate(83,73)"/>
<path d="M0 0 C0 1.98 0 3.96 0 6 C-0.99 5.34 -1.98 4.68 -3 4 C-3.598125 4.474375 -4.19625 4.94875 -4.8125 5.4375 C-7 7 -7 7 -10 8 C-10.33 8.99 -10.66 9.98 -11 11 C-14.54220546 12.82170566 -18.07765636 13.45269624 -22 14 C-21.34 13.67 -20.68 13.34 -20 13 C-20 12.34 -20 11.68 -20 11 C-17.60122747 8.88878011 -14.88822862 7.17337729 -12.25 5.375 C-11.52039063 4.859375 -10.79078125 4.34375 -10.0390625 3.8125 C-9.33007812 3.32523437 -8.62109375 2.83796875 -7.890625 2.3359375 C-6.91657715 1.66377197 -6.91657715 1.66377197 -5.92285156 0.97802734 C-4 0 -4 0 0 0 Z " fill="#315D9F" transform="translate(178,112)"/>
<path d="M0 0 C0.33 0.99 0.66 1.98 1 3 C3.50447516 4.21869929 3.50447516 4.21869929 6 5 C6 5.66 6 6.32 6 7 C7.32 7.33 8.64 7.66 10 8 C10 8.66 10 9.32 10 10 C11.32 10.33 12.64 10.66 14 11 C14 11.66 14 12.32 14 13 C14.66 13.33 15.32 13.66 16 14 C15.01 14.33 14.02 14.66 13 15 C10.9921875 13.890625 10.9921875 13.890625 8.875 12.25 C8.17117187 11.71890625 7.46734375 11.1878125 6.7421875 10.640625 C5 9 5 9 4 6 C1.33483044 4.04188839 1.33483044 4.04188839 -2 3 C-5.17549031 3.72493136 -5.17549031 3.72493136 -8 5 C-8.99 5 -9.98 5 -11 5 C-10 2 -10 2 -8.3125 0.8125 C-5.45030907 -0.19313465 -3.01172092 -0.13689641 0 0 Z " fill="#1584FA" transform="translate(63,93)"/>
<path d="M0 0 C0.99 0.33 1.98 0.66 3 1 C2.67475342 1.71172363 2.34950684 2.42344727 2.0144043 3.15673828 C0.94634941 6.1503766 0.7556241 8.3284471 0.76953125 11.4921875 C0.77146484 12.52730469 0.77339844 13.56242187 0.77539062 14.62890625 C0.78763672 15.70011719 0.79988281 16.77132812 0.8125 17.875 C0.8134668 19.47021484 0.8134668 19.47021484 0.81445312 21.09765625 C0.84464409 26.49848403 1.05275502 31.6802722 2 37 C1.505 35.515 1.505 35.515 1 34 C0.34 34 -0.32 34 -1 34 C-3.14591329 29.70817341 -2.18496017 23.96391997 -2.1875 19.25 C-2.19974609 18.06921875 -2.21199219 16.8884375 -2.22460938 15.671875 C-2.22654297 14.5271875 -2.22847656 13.3825 -2.23046875 12.203125 C-2.23457764 11.15801758 -2.23868652 10.11291016 -2.24291992 9.03613281 C-1.98052339 5.75657171 -1.15781184 3.06876065 0 0 Z " fill="#D0FDEC" transform="translate(15,67)"/>
<path d="M0 0 C2 0 2 0 3.62109375 1.5390625 C4.22050781 2.22742187 4.81992188 2.91578125 5.4375 3.625 C6.03433594 4.29789063 6.63117188 4.97078125 7.24609375 5.6640625 C11.59851172 11.46082407 12.41985696 15.84471257 12.1875 22.875 C12.17396484 23.65875 12.16042969 24.4425 12.14648438 25.25 C12.11141789 27.16696782 12.05762072 29.08357751 12 31 C11.67 31 11.34 31 11 31 C10.92652344 29.69675781 10.92652344 29.69675781 10.8515625 28.3671875 C10.77679688 27.21476562 10.70203125 26.06234375 10.625 24.875 C10.55539063 23.73804687 10.48578125 22.60109375 10.4140625 21.4296875 C10.00556124 18.04606384 9.19032431 15.18387559 8 12 C7.01 12 6.02 12 5 12 C4.89042969 11.43410156 4.78085938 10.86820313 4.66796875 10.28515625 C4.50941406 9.55167969 4.35085937 8.81820312 4.1875 8.0625 C4.03667969 7.33160156 3.88585937 6.60070313 3.73046875 5.84765625 C3.48941406 5.23792969 3.24835938 4.62820312 3 4 C2.01 3.67 1.02 3.34 0 3 C0 2.01 0 1.02 0 0 Z " fill="#1BCE80" transform="translate(168,57)"/>
<path d="M0 0 C0.66 0 1.32 0 2 0 C2 0.66 2 1.32 2 2 C2.72703125 2.26167969 3.4540625 2.52335937 4.203125 2.79296875 C7.06258431 4.02700915 9.27070313 5.43638777 11.75 7.3125 C12.52859375 7.88613281 13.3071875 8.45976563 14.109375 9.05078125 C16.39970183 11.41208928 16.91324376 12.72367616 17 16 C15.92578125 18.01953125 15.92578125 18.01953125 14.3125 19.8125 C13.79300781 20.41707031 13.27351562 21.02164063 12.73828125 21.64453125 C11 23 11 23 7 23 C6.67 22.01 6.34 21.02 6 20 C6.763125 19.9175 7.52625 19.835 8.3125 19.75 C11.52373261 18.85384206 12.29374499 17.78388975 14 15 C12.4834719 10.79595375 9.40270618 8.83047994 5.875 6.375 C3.86075137 4.96456503 1.93047944 3.52903417 0 2 C0 1.34 0 0.68 0 0 Z " fill="#CCFCEC" transform="translate(129,67)"/>
<path d="M0 0 C0.60714844 0.20109375 1.21429688 0.4021875 1.83984375 0.609375 C1.29714844 1.07988281 0.75445312 1.55039063 0.1953125 2.03515625 C-0.87783203 2.96908203 -0.87783203 2.96908203 -1.97265625 3.921875 C-2.68035156 4.53675781 -3.38804688 5.15164062 -4.1171875 5.78515625 C-6.74117976 8.09579065 -6.74117976 8.09579065 -9.16015625 10.609375 C-9.16015625 15.51007003 -6.28729182 18.16150758 -3.16015625 21.609375 C-7.05538954 21.0323034 -9.43077368 19.41457376 -12.16015625 16.609375 C-12.73392672 12.67494894 -12.33943776 9.93564678 -10.16015625 6.609375 C-8.84765625 5.109375 -8.84765625 5.109375 -7.16015625 3.609375 C-6.35578125 2.866875 -5.55140625 2.124375 -4.72265625 1.359375 C-2.16015625 -0.390625 -2.16015625 -0.390625 0 0 Z " fill="#C1F8E5" transform="translate(90.16015625,65.390625)"/>
<path d="M0 0 C0.66 0.33 1.32 0.66 2 1 C-1.52727382 5.75647531 -4.57654509 8.53038093 -9.9921875 10.8984375 C-12.32080717 12.17600705 -13.77091139 13.6727308 -15.5625 15.625 C-18.82915974 19.14004631 -21.31542824 20.13956845 -26 21 C-22.17892818 16.95157074 -18.09108443 13.72373807 -13.5625 10.5 C-8.88960202 7.15351138 -4.37391169 3.73168354 0 0 Z " fill="#446FAB" transform="translate(154,126)"/>
<path d="M0 0 C-1.04874998 2.62187494 -1.64931313 3.79371361 -4.125 5.25 C-4.74375 5.4975 -5.3625 5.745 -6 6 C-6 6.66 -6 7.32 -6 8 C-8.90600261 9.25664978 -10.79604584 10 -14 10 C-14 10.66 -14 11.32 -14 12 C-19.29411765 16 -19.29411765 16 -23 16 C-21.07705612 14.31180511 -19.15196939 12.62623083 -17.22265625 10.9453125 C-15.84703386 9.74134071 -14.47835218 8.52932401 -13.12109375 7.3046875 C-4.91708543 0 -4.91708543 0 0 0 Z " fill="#3CD391" transform="translate(85,15)"/>
<path d="M0 0 C0.66 0.33 1.32 0.66 2 1 C-0.67395735 4.56527647 -3.32388734 7.45499893 -7 10 C-7.99 10 -8.98 10 -10 10 C-10.66 11.32 -11.32 12.64 -12 14 C-12.99 14 -13.98 14 -15 14 C-15 14.66 -15 15.32 -15 16 C-16.98 16.66 -18.96 17.32 -21 18 C-19.37660195 16.29115995 -17.70680947 14.62553283 -16 13 C-15.34 13 -14.68 13 -14 13 C-14 12.34 -14 11.68 -14 11 C-12.71484375 9.76318359 -12.71484375 9.76318359 -10.9375 8.3984375 C-10.30585937 7.90859375 -9.67421875 7.41875 -9.0234375 6.9140625 C-8.35570313 6.40617187 -7.68796875 5.89828125 -7 5.375 C-6.33226563 4.859375 -5.66453125 4.34375 -4.9765625 3.8125 C-3.3219811 2.53610864 -1.66152632 1.26733768 0 0 Z " fill="#C4FAE8" transform="translate(79,57)"/>
<path d="M0 0 C0.66 0.33 1.32 0.66 2 1 C1.36191406 1.61488281 0.72382812 2.22976562 0.06640625 2.86328125 C-0.75988281 3.67152344 -1.58617188 4.47976562 -2.4375 5.3125 C-3.26121094 6.11300781 -4.08492187 6.91351563 -4.93359375 7.73828125 C-7.19403477 9.90470808 -7.19403477 9.90470808 -8 13 C-12.45714286 17 -12.45714286 17 -15 17 C-15 17.66 -15 18.32 -15 19 C-16.98 19.33 -18.96 19.66 -21 20 C-17.22851667 16.17201505 -13.33815922 12.5033718 -9.375 8.875 C-8.23643853 7.83131865 -7.09840031 6.78706613 -5.9609375 5.7421875 C-5.46384277 5.2869873 -4.96674805 4.83178711 -4.45458984 4.36279297 C-2.93612116 2.94015245 -1.46361989 1.47883762 0 0 Z " fill="#B6F7DE" transform="translate(47,82)"/>
<path d="M0 0 C3.78527521 0.51152368 5.44108688 1.20845842 8 4 C8.99 4.33 9.98 4.66 11 5 C11 5.66 11 6.32 11 7 C12.32 7.33 13.64 7.66 15 8 C15 8.66 15 9.32 15 10 C15.99 10 16.98 10 18 10 C20.1875 12.5 20.1875 12.5 22 15 C17.5621147 15 13.70453565 12.68585581 10.57421875 9.58984375 C10.05472656 9.06519531 9.53523437 8.54054688 9 8 C6.64691985 6.1386689 4.25654569 4.33269961 1.86328125 2.5234375 C1.24839844 2.02070312 0.63351563 1.51796875 0 1 C0 0.67 0 0.34 0 0 Z " fill="#CCFBED" transform="translate(137,33)"/>
<path d="M0 0 C0.33 0 0.66 0 1 0 C1.10812003 2.75105422 1.18734945 5.49785087 1.25 8.25 C1.28351563 9.02730469 1.31703125 9.80460937 1.3515625 10.60546875 C1.45112665 16.42997175 1.45112665 16.42997175 -1.015625 19.546875 C-1.67046875 20.02640625 -2.3253125 20.5059375 -3 21 C-3.26801045 13.86794421 -3.26245353 6.52490706 0 0 Z " fill="#12CD7B" transform="translate(178,75)"/>
<path d="M0 0 C3.90333871 0.87369417 7.14334565 1.75071241 9.5 5.1875 C9.7475 6.0846875 9.7475 6.0846875 10 7 C5 5 5 5 2.8125 3.875 C-2.83997649 2.11645176 -9.30236212 2.4806299 -15 4 C-11.36152009 -1.54435033 -5.93093585 -0.6789899 0 0 Z " fill="#A5F2D8" transform="translate(103,9)"/>
<path d="M0 0 C0.66 0.33 1.32 0.66 2 1 C0.3563186 2.68933922 -1.3142876 4.35259924 -3 6 C-3.61875 6.61875 -4.2375 7.2375 -4.875 7.875 C-8.10136522 9.5830757 -10.52341668 8.75852727 -14 8 C-14.99 7.67 -15.98 7.34 -17 7 C-17 6.34 -17 5.68 -17 5 C-19.97 4.505 -19.97 4.505 -23 4 C-23 3.34 -23 2.68 -23 2 C-19.43977179 2.90750915 -16.43867954 3.72455005 -13.3125 5.6875 C-11.1619551 7.17376466 -11.1619551 7.17376466 -9.0625 6.9375 C-5.51206254 5.32366479 -1.78634251 3.57268502 0 0 Z " fill="#1A7CED" transform="translate(109,159)"/>
<path d="M0 0 C2.03833424 1.2739589 4.03852126 2.61061923 6 4 C6 4.66 6 5.32 6 6 C11.67129279 4.64419322 11.67129279 4.64419322 16 1 C16.66 1 17.32 1 18 1 C18 2.98 18 4.96 18 7 C16.68 6.34 15.36 5.68 14 5 C14 5.66 14 6.32 14 7 C11.69 7.66 9.38 8.32 7 9 C6.62875 8.0409375 6.62875 8.0409375 6.25 7.0625 C5.18437567 4.81258459 5.18437567 4.81258459 2.875 4.25 C2.25625 4.1675 1.6375 4.085 1 4 C0.67 2.68 0.34 1.36 0 0 Z " fill="#1ACD7E" transform="translate(130,84)"/>
<path d="M0 0 C0.66 0.33 1.32 0.66 2 1 C1.01 1.33 0.02 1.66 -1 2 C-1 2.66 -1 3.32 -1 4 C-2.38075343 4.97663048 -3.76986321 5.94364857 -5.19921875 6.84765625 C-8.21735039 8.77899862 -11.09265385 10.90671077 -14 13 C-14 10 -14 10 -12.4375 8.125 C-8.60290834 4.78202266 -4.86056039 1.6201868 0 0 Z " fill="#32D18B" transform="translate(66,66)"/>
<path d="M0 0 C2.125 0.9375 2.125 0.9375 4 2 C4 2.99 4 3.98 4 5 C4.66 5 5.32 5 6 5 C6 5.66 6 6.32 6 7 C8.97 7.495 8.97 7.495 12 8 C12.33 8.99 12.66 9.98 13 11 C6.68688724 9.65678452 2.20391664 6.75248411 -3 3 C-2 1 -2 1 0 0 Z " fill="#2780F0" transform="translate(79,196)"/>
<path d="M0 0 C1.32 0.33 2.64 0.66 4 1 C4 1.66 4 2.32 4 3 C4.61875 3.12375 5.2375 3.2475 5.875 3.375 C8 4 8 4 10 6 C10.14507695 8.74485593 10.18652423 11.38480543 10.125 14.125 C10.11597656 14.87910156 10.10695313 15.63320312 10.09765625 16.41015625 C10.0740687 18.27357254 10.03819719 20.13682593 10 22 C9.34 22.33 8.68 22.66 8 23 C8 17.72 8 12.44 8 7 C6.865625 6.401875 5.73125 5.80375 4.5625 5.1875 C1.125 3.375 1.125 3.375 0 0 Z " fill="#B0DBF8" transform="translate(93,115)"/>
<path d="M0 0 C1.09570312 0.10183594 2.19140625 0.20367187 3.3203125 0.30859375 C4.16335937 0.39238281 5.00640625 0.47617187 5.875 0.5625 C6.535 2.2125 7.195 3.8625 7.875 5.5625 C7.00875 5.0675 6.1425 4.5725 5.25 4.0625 C1.6970683 2.48341924 -0.29636755 2.1463443 -4.125 2.5625 C-6.42730766 3.46081016 -6.42730766 3.46081016 -8.125 4.5625 C-8.125 3.2425 -8.125 1.9225 -8.125 0.5625 C-5.28943413 -0.85528293 -3.1341294 -0.30007622 0 0 Z " fill="#4FD89E" transform="translate(99.125,44.4375)"/>
<path d="M0 0 C1.98 0 3.96 0 6 0 C1.79392072 3.22466078 -0.28385359 4.12460635 -5.625 4.0625 C-6.62789063 4.05347656 -7.63078125 4.04445312 -8.6640625 4.03515625 C-9.43492188 4.02355469 -10.20578125 4.01195312 -11 4 C-11.33 3.34 -11.66 2.68 -12 2 C-7.74433453 0.83936396 -4.3164922 1.23826608 0 2 C0 1.34 0 0.68 0 0 Z " fill="#1060D8" transform="translate(103,203)"/>
<path d="M0 0 C2.23563089 1.03797149 4.03991337 2.03347573 5.9375 3.625 C8.46559669 5.31039779 10.02167594 5.24819367 13 5 C12.67 5.99 12.34 6.98 12 8 C9.08181329 8.34740318 6.86234943 8.50109494 4.265625 6.9921875 C2.625 5.6875 2.625 5.6875 0 3 C0 2.01 0 1.02 0 0 Z " fill="#C3FAE8" transform="translate(128,118)"/>
<path d="M0 0 C0.99 0 1.98 0 3 0 C1.65459949 4.03620153 -0.41945509 4.85167306 -4 7 C-4.99 7.33 -5.98 7.66 -7 8 C-7 8.66 -7 9.32 -7 10 C-7.66 10 -8.32 10 -9 10 C-8.67 8.02 -8.34 6.04 -8 4 C-7.38125 3.87625 -6.7625 3.7525 -6.125 3.625 C-3.80879168 3.12802644 -3.80879168 3.12802644 -2 1 C-1.34 1.33 -0.68 1.66 0 2 C0 1.34 0 0.68 0 0 Z " fill="#1ECD7E" transform="translate(88,47)"/>
<path d="M0 0 C0.66 0.33 1.32 0.66 2 1 C-2.63709134 5.16149223 -7.48438631 8.11962396 -13 11 C-12.67 9.68 -12.34 8.36 -12 7 C-11.01 7 -10.02 7 -9 7 C-9 6.34 -9 5.68 -9 5 C-7.68 5 -6.36 5 -5 5 C-5 4.34 -5 3.68 -5 3 C-4.34 3 -3.68 3 -3 3 C-3 2.34 -3 1.68 -3 1 C-2.01 0.67 -1.02 0.34 0 0 Z " fill="#BFF9E5" transform="translate(61,30)"/>
<path d="M0 0 C0.99 0 1.98 0 3 0 C2.67 0.99 2.34 1.98 2 3 C1.34 3 0.68 3 0 3 C0 3.66 0 4.32 0 5 C-1.86328125 6.47265625 -1.86328125 6.47265625 -4.3125 8.0625 C-5.11300781 8.58972656 -5.91351563 9.11695312 -6.73828125 9.66015625 C-9 11 -9 11 -12 12 C-12 11.34 -12 10.68 -12 10 C-11.34 10 -10.68 10 -10 10 C-10 9.34 -10 8.68 -10 8 C-4.58823529 4 -4.58823529 4 -2 4 C-2 3.34 -2 2.68 -2 2 C-1.34 1.34 -0.68 0.68 0 0 Z " fill="#DDF4FC" transform="translate(48,95)"/>
<path d="M0 0 C3.46950702 2.31300468 3.89847216 3.07121736 5 7 C5.22583773 9.94380194 5.18929435 12.86237845 5.125 15.8125 C5.11597656 16.60076172 5.10695312 17.38902344 5.09765625 18.20117188 C5.07422504 20.13424666 5.03835838 22.0671638 5 24 C4.67 24 4.34 24 4 24 C3.93941406 23.07316406 3.87882813 22.14632812 3.81640625 21.19140625 C3.73261719 19.99386719 3.64882812 18.79632813 3.5625 17.5625 C3.48128906 16.36753906 3.40007812 15.17257813 3.31640625 13.94140625 C3.32343886 11.11429756 3.32343886 11.11429756 2 10 C1.65458149 7.66842508 1.32205743 5.33491639 1 3 C0.67 2.01 0.34 1.02 0 0 Z " fill="#5DDDA7" transform="translate(175,64)"/>
<path d="M0 0 C0.66 0.33 1.32 0.66 2 1 C-1.32675273 5.30520941 -4.31527734 8.10942644 -9 11 C-10.34175973 11.98866506 -11.67896002 12.9838154 -13 14 C-10.27076097 7.54907138 -5.83503593 3.52816126 0 0 Z " fill="#35D28C" transform="translate(32,53)"/>
<path d="M0 0 C0.66 1.32 1.32 2.64 2 4 C2.99 3.67 3.98 3.34 5 3 C5.66 4.32 6.32 5.64 7 7 C7.66 7 8.32 7 9 7 C9.66 8.32 10.32 9.64 11 11 C7.65291949 9.45158425 4.75332488 7.50894136 1.75 5.375 C0.85796875 4.74335938 -0.0340625 4.11171875 -0.953125 3.4609375 C-1.62859375 2.97882812 -2.3040625 2.49671875 -3 2 C-2.01 1.34 -1.02 0.68 0 0 Z " fill="#C8FBEB" transform="translate(118,16)"/>
<path d="M0 0 C5.5967892 0.37944334 8.97923602 0.73555335 13 5 C13.8125 7.25 13.8125 7.25 14 9 C11.52105044 7.89824464 9.6754554 6.733707 7.5625 5 C5.08071863 3.06299991 2.95836218 2.01429561 0 1 C0 0.67 0 0.34 0 0 Z " fill="#BEF9E5" transform="translate(100,62)"/>
<path d="M0 0 C0.556875 0.28875 1.11375 0.5775 1.6875 0.875 C4.00808578 2.06620729 4.00808578 2.06620729 6.625 2.875 C9.39919994 4.18909471 9.96368671 5.17369103 11 8 C7.20696275 6.99806563 4.28463659 6.18975773 1 4 C0.3125 1.875 0.3125 1.875 0 0 Z " fill="#5CACFA" transform="translate(81,107)"/>
<path d="M0 0 C1.82700413 2.7405062 2.29836115 3.87189957 2.875 6.9375 C3.72242229 10.64838954 4.96757058 12.57405646 8 15 C6.68 15.33 5.36 15.66 4 16 C3.690625 15.360625 3.38125 14.72125 3.0625 14.0625 C2.1654837 12.06389179 2.1654837 12.06389179 1 11 C0.76636119 9.15108054 0.58696365 7.29511969 0.4375 5.4375 C0.35371094 4.42558594 0.26992187 3.41367188 0.18359375 2.37109375 C0.12300781 1.58863281 0.06242188 0.80617187 0 0 Z " fill="#C5E6FC" transform="translate(14,143)"/>
<path d="M0 0 C0 0.66 0 1.32 0 2 C1.4540625 2.433125 1.4540625 2.433125 2.9375 2.875 C6 4 6 4 7 6 C3.85262818 5.30058404 0.97411124 4.23921302 -2 3 C-2.66 3.66 -3.32 4.32 -4 5 C-6.125 4.625 -6.125 4.625 -8 4 C-3.375 0 -3.375 0 0 0 Z " fill="#2FD088" transform="translate(100,61)"/>
<path d="M0 0 C0.99 0.33 1.98 0.66 3 1 C2.34 1 1.68 1 1 1 C1 1.66 1 2.32 1 3 C-0.65 3.66 -2.3 4.32 -4 5 C-4 5.66 -4 6.32 -4 7 C-8.38461538 10 -8.38461538 10 -11 10 C-10.67 9.01 -10.34 8.02 -10 7 C-9.01 6.67 -8.02 6.34 -7 6 C-6.34 5.319375 -5.68 4.63875 -5 3.9375 C-3 2 -3 2 0 2 C0 1.34 0 0.68 0 0 Z " fill="#3663A8" transform="translate(162,163)"/>
<path d="M0 0 C0.66 0.33 1.32 0.66 2 1 C-2.06153846 6.78461538 -2.06153846 6.78461538 -6.8125 7.875 C-7.864375 7.91625 -8.91625 7.9575 -10 8 C-8.625 6.5 -8.625 6.5 -7 5 C-6.34 5 -5.68 5 -5 5 C-5 4.34 -5 3.68 -5 3 C-2.625 1.3125 -2.625 1.3125 0 0 Z " fill="#9EEFD0" transform="translate(151,115)"/>
<path d="M0 0 C-4 2.66666667 -8 5.33333333 -12 8 C-11.67 6.35 -11.34 4.7 -11 3 C-9.35 2.67 -7.7 2.34 -6 2 C-6 1.34 -6 0.68 -6 0 C-3 -1 -3 -1 0 0 Z " fill="#D3E9F5" transform="translate(158,125)"/>
<path d="M0 0 C2.475 0.495 2.475 0.495 5 1 C5.33 1.99 5.66 2.98 6 4 C6.99 4 7.98 4 9 4 C10.6875 6.5 10.6875 6.5 12 9 C8.98472262 7.59422879 6.4052059 5.93873852 3.75 3.9375 C3.04359375 3.41027344 2.3371875 2.88304688 1.609375 2.33984375 C1.07828125 1.89769531 0.5471875 1.45554687 0 1 C0 0.67 0 0.34 0 0 Z " fill="#BCF9E4" transform="translate(123,78)"/>
<path d="M0 0 C8.44646925 6.15034169 8.44646925 6.15034169 12 10 C7.08624792 9.56643364 4.47270043 7.39377542 1 4 C0.328125 1.83203125 0.328125 1.83203125 0 0 Z " fill="#2CD087" transform="translate(113,71)"/>
<path d="M0 0 C0.66 0.33 1.32 0.66 2 1 C1.34 2.32 0.68 3.64 0 5 C-1.32 5 -2.64 5 -4 5 C-4.33 5.99 -4.66 6.98 -5 8 C-6.32 7.67 -7.64 7.34 -9 7 C-6.03 4.69 -3.06 2.38 0 0 Z " fill="#B9DAF4" transform="translate(142,179)"/>
<path d="M0 0 C0.66 0 1.32 0 2 0 C2 0.66 2 1.32 2 2 C3.0828125 2.37125 3.0828125 2.37125 4.1875 2.75 C7.27606582 4.12269592 9.51011418 5.72353296 12 8 C12 8.66 12 9.32 12 10 C9.00745382 8.59808647 6.4045389 6.96632511 3.75 5 C3.04359375 4.484375 2.3371875 3.96875 1.609375 3.4375 C0.81273437 2.7259375 0.81273437 2.7259375 0 2 C0 1.34 0 0.68 0 0 Z " fill="#DAFEF5" transform="translate(129,67)"/>
<path d="M0 0 C0.66 0.33 1.32 0.66 2 1 C1.34 2.32 0.68 3.64 0 5 C-0.66 5 -1.32 5 -2 5 C-2 5.66 -2 6.32 -2 7 C-3.98 7.33 -5.96 7.66 -8 8 C-8 7.34 -8 6.68 -8 6 C-6.25 4.4921875 -6.25 4.4921875 -4 2.875 C-3.2575 2.33617187 -2.515 1.79734375 -1.75 1.2421875 C-1.1725 0.83226562 -0.595 0.42234375 0 0 Z " fill="#B3D8F2" transform="translate(131,187)"/>
<path d="M0 0 C0.66 0.99 1.32 1.98 2 3 C1.3125 4.9375 1.3125 4.9375 0 7 C-2.625 7.75 -2.625 7.75 -5 8 C-3.62845496 5.04590299 -2.01136276 2.55991624 0 0 Z " fill="#B3CCE1" transform="translate(174,153)"/>
<path d="M0 0 C0 1.98 0 3.96 0 6 C-0.99 5.01 -1.98 4.02 -3 3 C-5.31 3.66 -7.62 4.32 -10 5 C-5.16129032 0 -5.16129032 0 0 0 Z " fill="#6E859F" transform="translate(178,112)"/>
<path d="M0 0 C0.99 0.33 1.98 0.66 3 1 C3 1.66 3 2.32 3 3 C4.32 3.33 5.64 3.66 7 4 C7 4.66 7 5.32 7 6 C8.32 6.33 9.64 6.66 11 7 C10.01 7.495 10.01 7.495 9 8 C5.78216298 6.56224304 2.93373731 4.95582488 0 3 C0 2.01 0 1.02 0 0 Z " fill="#D2EBFC" transform="translate(61,187)"/>
<path d="M0 0 C0.625 2.3125 0.625 2.3125 1 5 C0.01 6.485 0.01 6.485 -1 8 C-4 3.25 -4 3.25 -4 1 C-2 0 -2 0 0 0 Z " fill="#00CC66" transform="translate(172,64)"/>
<path d="M0 0 C1.32 0.33 2.64 0.66 4 1 C3.2575 1.4125 2.515 1.825 1.75 2.25 C-0.90171685 3.93745618 -2.86674014 5.70872089 -5 8 C-5.66 7.67 -6.32 7.34 -7 7 C-6.34 6.01 -5.68 5.02 -5 4 C-4.34 4 -3.68 4 -3 4 C-3 3.34 -3 2.68 -3 2 C-2.01 2 -1.02 2 0 2 C0 1.34 0 0.68 0 0 Z " fill="#BBF9E2" transform="translate(43,42)"/>
<path d="M0 0 C-0.625 1.875 -0.625 1.875 -2 4 C-4.875 5.125 -4.875 5.125 -8 6 C-9.34721283 6.63815344 -10.68747118 7.29325371 -12 8 C-9.03433209 3.77962644 -5.51765687 0 0 0 Z " fill="#4FDC9D" transform="translate(85,15)"/>
<path d="M0 0 C0.33 0.99 0.66 1.98 1 3 C-1.95183101 5.95183101 -4.95511947 6.08663988 -9 7 C-6.24479785 4.04070881 -3.53372712 1.96318174 0 0 Z " fill="#B5D7F0" transform="translate(153,172)"/>
<path d="M0 0 C-1.98 0.99 -1.98 0.99 -4 2 C-4 2.66 -4 3.32 -4 4 C-5.98 4.99 -5.98 4.99 -8 6 C-8.33 4.68 -8.66 3.36 -9 2 C-3.375 -1.125 -3.375 -1.125 0 0 Z " fill="#31D28B" transform="translate(170,102)"/>
<path d="M0 0 C1.32 0.66 2.64 1.32 4 2 C-0.625 6.875 -0.625 6.875 -4 8 C-4 7.01 -4 6.02 -4 5 C-3.34 5 -2.68 5 -2 5 C-1.34 3.35 -0.68 1.7 0 0 Z " fill="#114499" transform="translate(152,163)"/>
<path d="M0 0 C0.66 0 1.32 0 2 0 C1.34 4.95 0.68 9.9 0 15 C-2.34825713 11.4776143 -2.13467414 10.45883133 -1.6875 6.375 C-1.58824219 5.39273438 -1.48898437 4.41046875 -1.38671875 3.3984375 C-1 1 -1 1 0 0 Z " fill="#D7F2FF" transform="translate(14,125)"/>
<path d="M0 0 C3.70066609 0.90460727 5.56497978 1.43868358 7.9375 4.5 C8.288125 5.325 8.63875 6.15 9 7 C8.67 7.66 8.34 8.32 8 9 C6.29115995 7.37660195 4.62553283 5.70680947 3 4 C3 3.34 3 2.68 3 2 C2.01 1.67 1.02 1.34 0 1 C0 0.67 0 0.34 0 0 Z " fill="#C7FBEA" transform="translate(167,55)"/>
<path d="M0 0 C3.65316671 1.24976756 4.78065836 1.67098753 7 5 C7.99 5.33 8.98 5.66 10 6 C9.67 6.66 9.34 7.32 9 8 C2.21917808 4.83561644 2.21917808 4.83561644 0 2 C0 1.34 0 0.68 0 0 Z " fill="#C9E7FA" transform="translate(37,170)"/>
<path d="M0 0 C0.68359375 1.765625 0.68359375 1.765625 1 4 C-0.21484375 5.921875 -0.21484375 5.921875 -1.9375 7.75 C-2.50339844 8.36359375 -3.06929687 8.9771875 -3.65234375 9.609375 C-4.31943359 10.29773438 -4.31943359 10.29773438 -5 11 C-5.66 10.67 -6.32 10.34 -7 10 C-6.401875 9.46375 -5.80375 8.9275 -5.1875 8.375 C-2.78684406 5.76857355 -1.45981486 3.2115927 0 0 Z " fill="#DAFEF6" transform="translate(178,92)"/>
<path d="M0 0 C0.66 0.33 1.32 0.66 2 1 C0.3125 3.5 0.3125 3.5 -2 6 C-4.75 6.3125 -4.75 6.3125 -7 6 C-5.68 5.34 -4.36 4.68 -3 4 C-3 3.34 -3 2.68 -3 2 C-2.01 1.34 -1.02 0.68 0 0 Z " fill="#D5ECF5" transform="translate(161,166)"/>
<path d="M0 0 C0.99 0.33 1.98 0.66 3 1 C0.75 3.0625 0.75 3.0625 -2 5 C-4.25 4.875 -4.25 4.875 -6 4 C-6.33 3.34 -6.66 2.68 -7 2 C-4.525 2.495 -4.525 2.495 -2 3 C-2 2.34 -2 1.68 -2 1 C-1.34 0.67 -0.68 0.34 0 0 Z " fill="#AAD7F9" transform="translate(103,162)"/>
<path d="M0 0 C2.475 0.99 2.475 0.99 5 2 C5 2.66 5 3.32 5 4 C6.32 4.66 7.64 5.32 9 6 C8.01 6.33 7.02 6.66 6 7 C2.76985216 4.84656811 1.24313463 3.72940389 0 0 Z " fill="#D2FDF1" transform="translate(103,48)"/>
<path d="M0 0 C0.66 0.33 1.32 0.66 2 1 C-1.17320782 4.53586014 -3.16743695 6.58578031 -8 7 C-5.42215154 4.35247996 -3.08351902 2.05567935 0 0 Z " fill="#9BF1CF" transform="translate(161,108)"/>
<path d="M0 0 C0.33 0.99 0.66 1.98 1 3 C-1.31 3.66 -3.62 4.32 -6 5 C-5.625 3.0625 -5.625 3.0625 -5 1 C-3 0 -3 0 0 0 Z " fill="#1182FC" transform="translate(58,94)"/>
<path d="M0 0 C4.455 2.97 4.455 2.97 9 6 C8.01 6.33 7.02 6.66 6 7 C2.8125 4.6875 2.8125 4.6875 0 2 C0 1.34 0 0.68 0 0 Z " fill="#D7FEF5" transform="translate(78,80)"/>
<path d="M0 0 C2.3125 0.1875 2.3125 0.1875 5 1 C6.8125 3.5625 6.8125 3.5625 8 6 C4.08597051 4.73058503 2.20927127 3.48832306 0 0 Z " fill="#B6F7E1" transform="translate(115,72)"/>
<path d="M0 0 C0.33 0.66 0.66 1.32 1 2 C1.66 2.33 2.32 2.66 3 3 C-1.75 7 -1.75 7 -4 7 C-2.79618552 4.50638429 -1.54571278 2.31856917 0 0 Z " fill="#15CC7A" transform="translate(76,55)"/>
<path d="M0 0 C1.32 0.33 2.64 0.66 4 1 C-0.75 5.875 -0.75 5.875 -3 7 C-3 5.68 -3 4.36 -3 3 C-2.34 3 -1.68 3 -1 3 C-0.67 2.01 -0.34 1.02 0 0 Z " fill="#C7FBEB" transform="translate(24,56)"/>
<path d="M0 0 C2.25 0.125 2.25 0.125 5 1 C7.3125 4.0625 7.3125 4.0625 9 7 C5.18315774 5.44499019 2.80804268 2.96404505 0 0 Z " fill="#B8F8E2" transform="translate(137,33)"/>
<path d="M0 0 C3.91402949 1.26941497 5.79072873 2.51167694 8 6 C7.01 6.495 7.01 6.495 6 7 C5.566875 6.525625 5.13375 6.05125 4.6875 5.5625 C2.97690387 3.76313043 2.97690387 3.76313043 0 3 C0 2.01 0 1.02 0 0 Z " fill="#A8D4F9" transform="translate(29,164)"/>
<path d="M0 0 C0.33 0 0.66 0 1 0 C1.36923077 5.53846154 1.36923077 5.53846154 -0.5 7.875 C-1.2425 8.431875 -1.2425 8.431875 -2 9 C-3 6 -3 6 -1.5625 2.8125 C-1.046875 1.884375 -0.53125 0.95625 0 0 Z " fill="#B3DDFA" transform="translate(100,139)"/>
<path d="M0 0 C2.97 1.65 5.94 3.3 9 5 C6 6 6 6 2.8125 4.5625 C1.884375 4.046875 0.95625 3.53125 0 3 C0 2.01 0 1.02 0 0 Z " fill="#C0FAE6" transform="translate(113,106)"/>
<path d="M0 0 C3.43927579 1.2419607 6.25207819 2.55740284 9 5 C9 5.66 9 6.32 9 7 C6.525 6.01 6.525 6.01 4 5 C4 4.34 4 3.68 4 3 C2.68 2.34 1.36 1.68 0 1 C0 0.67 0 0.34 0 0 Z " fill="#4AD499" transform="translate(127,64)"/>
<path d="M0 0 C-0.639375 0.103125 -1.27875 0.20625 -1.9375 0.3125 C-2.618125 0.539375 -3.29875 0.76625 -4 1 C-4.33 1.99 -4.66 2.98 -5 4 C-5.99 4.33 -6.98 4.66 -8 5 C-8 3.68 -8 2.36 -8 1 C-5.29120665 -0.35439668 -2.99066732 -0.06501451 0 0 Z " fill="#37D38E" transform="translate(99,44)"/>
<path d="M0 0 C4.24822374 0.47202486 6.19989709 2.96655518 9 6 C4.58763974 6 3.21615077 3.9302707 0 1 C0 0.67 0 0.34 0 0 Z " fill="#1ACC7B" transform="translate(128,29)"/>
<path d="M0 0 C5.75 1.625 5.75 1.625 8 5 C6.25 5.75 6.25 5.75 4 6 C1.75 4.1875 1.75 4.1875 0 2 C0 1.34 0 0.68 0 0 Z " fill="#26CE84" transform="translate(108,14)"/>
<path d="M0 0 C-2.31 1.65 -4.62 3.3 -7 5 C-7.66 4.67 -8.32 4.34 -9 4 C-6.77642026 0.66463039 -4.04815944 -2.02407972 0 0 Z " fill="#D9FEF4" transform="translate(92,10)"/>
<path d="M0 0 C0.99 0.33 1.98 0.66 3 1 C1.02 1.99 1.02 1.99 -1 3 C-1 3.66 -1 4.32 -1 5 C-1.66 5 -2.32 5 -3 5 C-3.33 5.66 -3.66 6.32 -4 7 C-4 4 -4 4 -2 1.8125 C-1.34 1.214375 -0.68 0.61625 0 0 Z " fill="#104398" transform="translate(143,136)"/>
<path d="M0 0 C0.66 0.33 1.32 0.66 2 1 C-2.75 5 -2.75 5 -5 5 C-5.33 5.66 -5.66 6.32 -6 7 C-6 5.68 -6 4.36 -6 3 C-4.03533587 1.93224776 -2.03144641 0.93446535 0 0 Z " fill="#B4DFFB" transform="translate(22,118)"/>
<path d="M0 0 C3.65316671 1.24976756 4.78065836 1.67098753 7 5 C4.625 4.75 4.625 4.75 2 4 C0.6875 1.9375 0.6875 1.9375 0 0 Z " fill="#C0F9E6" transform="translate(122,62)"/>
<path d="M0 0 C2.31 0.66 4.62 1.32 7 2 C7 2.99 7 3.98 7 5 C3.34683329 3.75023244 2.21934164 3.32901247 0 0 Z " fill="#B1F6DE" transform="translate(130,28)"/>
<path d="M0 0 C-1.24546405 3.73639216 -2.63404953 4.18756513 -6 6 C-5.67 4.35 -5.34 2.7 -5 1 C-2 0 -2 0 0 0 Z " fill="#DCFFF5" transform="translate(69,24)"/>
</svg>
